<svg height="100" viewBox="0 0 1071 100" fill="none" xmlns="http://www.w3.org/2000/svg">
  <g clip-path="url(#a)" fill="#000">
    <path d="M484.802 15.2915v7.4058h-37.357v23.5509h33.439v7.4058h-33.439v30.4301h-8.694V15.2915h46.051Zm41.752-1.3364c20.397 0 34.3 12.8979 34.3 35.7325 0 22.8346-13.903 35.7325-34.3 35.7325s-34.3-12.8979-34.3-35.7325c0-22.8346 13.903-35.7325 34.3-35.7325Zm0 63.9176c15.335 0 25.365-10.2226 25.365-28.1851s-10.033-28.1852-25.365-28.1852c-15.333 0-25.366 10.2227-25.366 28.1852s10.033 28.1851 25.366 28.1851ZM582.4 15.2915v43.2346c0 12.326 6.449 19.0128 19.013 19.0128 12.563 0 19.012-6.6868 19.012-19.0128V15.2915h8.79v43.4242c0 16.0998-9.124 26.5121-27.802 26.5121-18.679 0-27.755-10.4152-27.755-26.5121V15.2915h8.742Zm73.616 0 35.209 56.0362h.764V15.2915h8.456v68.7926h-10.556l-35.161-56.0362h-.764v56.0362h-8.456V15.2915h10.508Zm120.099 34.3963c0 21.4021-13.473 34.3963-33.726 34.3963h-25.224V15.2915h25.224c20.256 0 33.726 12.9942 33.726 34.3963Zm-33.966 26.8489c15.001 0 25.079-9.5064 25.079-26.8489s-10.081-26.8489-25.079-26.8489h-16.242v53.695h16.242v.0028Zm75.53-61.2452 25.128 67.3572v1.4325h-8.742l-7.262-19.7771h-29.761l-7.214 19.7771h-8.504v-1.4325l25.079-67.3572h11.276Zm6.594 41.4652-11.944-32.675h-.765l-11.992 32.675h24.701Zm76.099-41.4652v7.5955H875.53v61.1971h-8.79V22.887h-24.842v-7.5955h58.474Zm20.256 0v68.7926h-8.791V15.2915h8.791Zm47.437-1.3364c20.398 0 34.305 12.8979 34.305 35.7325 0 22.8346-13.907 35.7325-34.305 35.7325-20.397 0-34.3-12.8979-34.3-35.7325 0-22.8346 13.903-35.7325 34.3-35.7325Zm0 63.9176c15.336 0 25.366-10.2226 25.366-28.1851s-10.033-28.1852-25.366-28.1852c-15.332 0-25.365 10.2227-25.365 28.1852s10.033 28.1851 25.365 28.1851Zm57.995-62.5812 35.21 56.0362h.76V15.2915h8.46v68.7926h-10.56l-35.16-56.0362h-.76v56.0362h-8.46V15.2915h10.51Zm-857.117-1.2109c-7.534 0-13.012 1.7806-17.666 5.8884l-8.218 7.1199c-.685.5492-2.055.9597-3.012.1359-.96-.821-1.096-1.9166-.275-3.0122l4.383-6.5735c.685-.9597.138-2.1912-1.096-2.1912h-10.545c-1.232 0-2.191.9597-2.191 2.1912v64.0931c0 1.2315.959 2.1912 2.191 2.1912h10.956c1.231 0 2.191-.9597 2.191-2.1912V45.5779c0-16.5696 13.832-19.1713 19.035-19.1713 11.092 0 15.064 7.9437 15.064 13.968v41.3576c0 1.2315.959 2.1912 2.191 2.1912h10.956c1.231 0 2.191-.9597 2.191-2.1912V39.0044c0-15.3382-9.999-24.9238-26.158-24.9238h.003Zm70.796-.2759c-21.226 0-34.784 13.0111-34.784 30.6764v9.7243c0 18.625 13.558 31.3615 34.784 31.3615 18.761 0 31.908-9.7243 33.278-22.8714.139-1.3702-.821-2.327-2.191-2.327h-10.681c-.96 0-1.781.5492-2.055 1.506-1.371 4.3824-7.805 10.9559-18.351 10.9559-10.545 0-20.405-7.6691-20.269-18.625l.138-12.1873c.136-9.1751 9.725-15.4741 20.131-15.4741 9.45 0 18.625 5.3421 19.582 14.1068.079 1.0135-.617 1.9279-1.616 2.1204L227 48.7304c-1.232.2746-2.191 1.3701-2.191 2.7375v.1359c0 1.2315 1.231 2.327 3.012 2.327h44.098c1.212 0 2.191-.9823 2.191-2.1911v-8.626c0-16.295-14.107-29.3062-34.374-29.3062l.003-.0028Zm76.414-.0001c-17.119 0-31.908 9.9961-31.908 23.1432 0 1.0955.96 1.9165 2.191 1.9165h11.092c1.095 0 1.916-.821 2.055-1.9165 1.096-6.0243 8.354-10.4067 16.159-10.4067 9.311 0 15.613 5.7526 15.613 15.6128v11.9156c0 12.1873-9.039 18.3503-20.27 18.3503-8.764 0-13.832-3.2868-13.832-8.6288 0-4.6569 2.466-8.6288 12.598-10.9558l14.653-3.9719c1.506-.4105 2.055-1.6448 1.781-3.0121-.136-1.0956-1.368-1.6448-2.466-1.6448H308.62c-12.873 0-25.884 8.2154-25.884 20.2669v1.9165c0 12.3261 11.641 18.7609 24.924 18.7609 8.49 0 15.748-3.2868 20.267-7.1199l6.712-5.7525c1.096-.9597 2.191-.9597 3.148 0 .821.8209.546 2.0552-.139 3.0121l-4.107 6.4376c-.686.9597-.139 2.1912 1.095 2.1912h9.86c1.232 0 2.192-.9597 2.192-2.1912V40.2317c0-15.8846-11.367-26.4299-30.541-26.4299l.006.0028Zm89.696 1.6461h-15.338c-5.339 0-10.545 3.2867-14.243 6.4376l-6.024 5.2033c-.685.5492-1.919.9597-2.74.2746-.96-.6851-1.371-2.0552-.547-3.1508l4.383-6.5735c.685-.9597.138-2.1912-1.096-2.1912h-10.271c-1.231 0-2.191.9597-2.191 2.1912V81.735c0 1.2315.96 2.1912 2.191 2.1912h11.231c1.231 0 2.191-.9597 2.191-2.1912V48.8674c0-14.1067 5.752-20.4056 18.214-20.4056h14.243c1.231 0 2.191-.9597 2.191-2.1912v-8.6287c0-1.2315-.96-2.1912-2.191-2.1912h-.003ZM89.1636.00463867c-3.6803 0-7.0972 1.90807133-9.0251 5.04479133L59.3677 35.8872c-.6766 1.0163-.402 2.3865.6143 3.0631.8238.5492 1.9137.4813 2.6639-.1642l20.4453-17.7332c.3397-.3057.8634-.2746 1.1692.0651.1387.1557.2123.3567.2123.5634v55.521c0 .4586-.3709.8266-.8295.8266-.2463 0-.4784-.1076-.6341-.2973L21.2062 3.75284C19.1934 1.37766 16.2379.00746964 13.1266.00463867h-2.16C5.12063.00463867.381592 4.74368.381592 10.5896v78.1971c0 5.8459 4.739038 10.585 10.585008 10.585 3.6802 0 7.0972-1.9081 9.0251-5.0448l20.7708-30.8378c.6766-1.0163.402-2.3865-.6143-3.0631-.8238-.5492-1.9137-.4812-2.6639.1642L17.039 78.3234c-.3397.3058-.8634.2746-1.1692-.0651-.1387-.1557-.2123-.3567-.2095-.5634V22.1598c0-.4586.3709-.8266.8295-.8266.2435 0 .4784.1075.6341.2972l61.7944 73.9931c2.0129 2.3752 4.9684 3.7453 8.0796 3.7482h2.1601c5.8459.0028 10.5878-4.7334 10.5934-10.5794V10.5896c0-5.84592-4.739-10.58496133-10.585-10.58496133h-.0028Z"/>
  </g>
  <defs>
    <clipPath id="a">
      <path fill="#000" d="M0 0h1071v100H0z"/>
    </clipPath>
  </defs>
</svg>
