<svg width="158" height="32" viewBox="0 0 158 32" fill="none" xmlns="http://www.w3.org/2000/svg">
<path d="M18.0823 7.77686L27.1542 7.77686C27.3648 7.77686 27.5754 7.90092 27.6806 8.07814L32.0323 15.6987C32.1376 15.8937 32.1376 16.1241 32.0323 16.319L27.6806 23.9396C27.5754 24.1345 27.3648 24.2409 27.1542 24.2409H19.1352C18.6614 24.2409 18.3631 23.7269 18.6088 23.3193L20.4863 20.023C20.6442 19.7571 20.9776 19.6508 21.2584 19.7749C21.8199 20.0052 22.434 20.1116 23.0833 20.0761C24.9082 19.9521 26.4699 18.552 26.7682 16.7266C27.0665 14.9012 26.2067 13.2708 24.8029 12.4733C24.2063 12.1188 23.522 11.9239 22.785 11.9239C21.0478 11.9239 19.7458 13.0781 18.9948 14.5822L14.2044 23.9396C14.0991 24.1345 13.8886 24.2409 13.678 24.2409H4.95707C4.7465 24.2409 4.53594 24.1168 4.43066 23.9396L0.0789622 16.319C-0.0263207 16.1241 -0.0263207 15.8937 0.0789622 15.6987L4.43066 8.07814C4.53594 7.8832 4.7465 7.77686 4.95707 7.77686L12.9761 7.77686C13.4499 7.77686 13.7482 8.29081 13.5025 8.69842L11.625 11.977C11.4671 12.2429 11.1512 12.3492 10.8529 12.2252C10.3791 12.0302 9.85273 11.9239 9.30877 11.9239C7.08028 11.9239 5.27292 13.7493 5.27292 16.0177C5.27292 17.5241 6.08009 18.8533 7.29084 19.5445C7.88745 19.8989 8.57178 20.0939 9.30877 20.0939C11.0459 20.0939 12.3662 18.8854 13.099 17.4178L18.0648 7.75914L18.0823 7.77686Z" fill="#656CEC"/>
<path d="M149.617 24.7902C148.035 24.7902 146.605 24.4327 145.327 23.7178C144.071 22.9812 143.063 21.9955 142.305 20.7607C141.568 19.5042 141.2 18.1068 141.2 16.5687C141.2 15.0306 141.568 13.6549 142.305 12.4417C143.042 11.2069 144.049 10.232 145.327 9.51709C146.605 8.78052 148.024 8.41223 149.584 8.41223C151.187 8.41223 152.617 8.78052 153.874 9.51709C155.152 10.232 156.159 11.2069 156.896 12.4417C157.632 13.6549 158.001 15.0306 158.001 16.5687C158.001 18.1068 157.632 19.5042 156.896 20.7607C156.159 21.9955 155.152 22.9812 153.874 23.7178C152.617 24.4327 151.198 24.7902 149.617 24.7902ZM149.584 20.8257C150.386 20.8257 151.09 20.6523 151.696 20.3057C152.325 19.9374 152.801 19.4392 153.126 18.8109C153.473 18.161 153.646 17.4244 153.646 16.6012C153.646 15.778 153.473 15.0522 153.126 14.424C152.78 13.7957 152.303 13.3083 151.696 12.9617C151.09 12.5934 150.386 12.4092 149.584 12.4092C148.804 12.4092 148.111 12.5934 147.504 12.9617C146.898 13.3083 146.421 13.7957 146.075 14.424C145.728 15.0522 145.555 15.778 145.555 16.6012C145.555 17.4244 145.728 18.161 146.075 18.8109C146.421 19.4392 146.898 19.9374 147.504 20.3057C148.111 20.6523 148.804 20.8257 149.584 20.8257Z" fill="white"/>
<path d="M134.978 24.7902C133.375 24.7902 131.934 24.4327 130.656 23.7178C129.378 23.0029 128.371 22.028 127.634 20.7932C126.898 19.5583 126.529 18.1718 126.529 16.6337C126.529 15.0739 126.898 13.6766 127.634 12.4417C128.371 11.2069 129.378 10.232 130.656 9.51709C131.956 8.78052 133.397 8.41223 134.978 8.41223C136.213 8.41223 137.35 8.6397 138.39 9.09464C139.43 9.54959 140.329 10.1995 141.087 11.0444L138.358 13.8065C137.946 13.3516 137.448 13.005 136.863 12.7667C136.3 12.5284 135.671 12.4092 134.978 12.4092C134.198 12.4092 133.494 12.5934 132.866 12.9617C132.259 13.3083 131.772 13.7957 131.404 14.424C131.057 15.0306 130.884 15.7563 130.884 16.6012C130.884 17.4244 131.057 18.161 131.404 18.8109C131.772 19.4392 132.259 19.9374 132.866 20.3057C133.494 20.6523 134.198 20.8257 134.978 20.8257C135.693 20.8257 136.332 20.7065 136.895 20.4682C137.48 20.2082 137.979 19.8399 138.39 19.3633L141.152 22.1255C140.351 22.9921 139.43 23.6528 138.39 24.1077C137.35 24.5627 136.213 24.7902 134.978 24.7902Z" fill="white"/>
<path d="M117.077 24.5951L110.513 8.76965H115.127L119.482 20.8581H117.922L122.439 8.76965H127.086L120.099 24.5951H117.077ZM112.722 31.0293L117.499 20.9231L120.099 24.5951L117.239 31.0293H112.722Z" fill="white"/>
<path d="M105.084 24.4652V0.970657H109.341V24.4652H105.084Z" fill="white"/>
<path d="M95.664 24.7901C94.5375 24.7901 93.5192 24.5627 92.6094 24.1077C91.6995 23.6311 90.9737 22.992 90.4321 22.1905C89.8905 21.3889 89.5981 20.4682 89.5547 19.4283V13.8715C89.5981 12.8316 89.8905 11.9109 90.4321 11.1094C90.9954 10.2861 91.7211 9.63622 92.6094 9.15961C93.5192 8.68301 94.5375 8.4447 95.664 8.4447C97.1155 8.4447 98.4153 8.80216 99.5635 9.51707C100.712 10.232 101.611 11.2069 102.261 12.4417C102.932 13.6765 103.268 15.0739 103.268 16.6337C103.268 18.1718 102.932 19.5583 102.261 20.7931C101.611 22.028 100.712 23.0029 99.5635 23.7178C98.4153 24.4327 97.1155 24.7901 95.664 24.7901ZM86.9551 31.0293V8.76966H91.212V12.8966L90.4971 16.6987L91.1795 20.5007V31.0293H86.9551ZM94.9166 20.8581C95.6965 20.8581 96.3897 20.6848 96.9963 20.3382C97.6029 19.9699 98.0687 19.4716 98.3936 18.8434C98.7402 18.1935 98.9136 17.4461 98.9136 16.6012C98.9136 15.7779 98.7402 15.0522 98.3936 14.4239C98.0687 13.774 97.6029 13.2758 96.9963 12.9291C96.3897 12.5608 95.6965 12.3767 94.9166 12.3767C94.1583 12.3767 93.4759 12.5608 92.8693 12.9291C92.2627 13.2758 91.7861 13.774 91.4395 14.4239C91.1145 15.0522 90.9521 15.7779 90.9521 16.6012C90.9521 17.4461 91.1145 18.1935 91.4395 18.8434C91.7861 19.4716 92.2519 19.9699 92.8368 20.3382C93.4434 20.6848 94.1367 20.8581 94.9166 20.8581Z" fill="white"/>
<path d="M77.5341 24.7901C76.4076 24.7901 75.3894 24.5627 74.4795 24.1077C73.5696 23.6311 72.8439 22.992 72.3023 22.1905C71.7607 21.3889 71.4682 20.4682 71.4249 19.4283V13.8715C71.4682 12.8316 71.7607 11.9109 72.3023 11.1094C72.8655 10.2861 73.5913 9.63622 74.4795 9.15961C75.3894 8.68301 76.4076 8.4447 77.5341 8.4447C78.9856 8.4447 80.2854 8.80216 81.4336 9.51707C82.5818 10.232 83.4808 11.2069 84.1308 12.4417C84.8023 13.6765 85.1381 15.0739 85.1381 16.6337C85.1381 18.1718 84.8023 19.5583 84.1308 20.7931C83.4808 22.028 82.5818 23.0029 81.4336 23.7178C80.2854 24.4327 78.9856 24.7901 77.5341 24.7901ZM68.8252 31.0293V8.76966H73.0822V12.8966L72.3672 16.6987L73.0497 20.5007V31.0293H68.8252ZM76.7867 20.8581C77.5666 20.8581 78.2598 20.6848 78.8664 20.3382C79.473 19.9699 79.9388 19.4716 80.2637 18.8434C80.6104 18.1935 80.7837 17.4461 80.7837 16.6012C80.7837 15.7779 80.6104 15.0522 80.2637 14.4239C79.9388 13.774 79.473 13.2758 78.8664 12.9291C78.2598 12.5608 77.5666 12.3767 76.7867 12.3767C76.0285 12.3767 75.346 12.5608 74.7394 12.9291C74.1329 13.2758 73.6563 13.774 73.3096 14.4239C72.9847 15.0522 72.8222 15.7779 72.8222 16.6012C72.8222 17.4461 72.9847 18.1935 73.3096 18.8434C73.6563 19.4716 74.122 19.9699 74.7069 20.3382C75.3135 20.6848 76.0068 20.8581 76.7867 20.8581Z" fill="white"/>
<path d="M59.3266 24.7901C57.9401 24.7901 56.7052 24.4977 55.622 23.9127C54.5605 23.3278 53.7264 22.5154 53.1198 21.4755C52.5133 20.4357 52.21 19.2333 52.21 17.8685V8.76965H56.4994V17.771C56.4994 18.4209 56.6077 18.9842 56.8244 19.4608C57.041 19.9157 57.366 20.2624 57.7993 20.5007C58.2325 20.739 58.7416 20.8581 59.3266 20.8581C60.2148 20.8581 60.908 20.5873 61.4063 20.0457C61.9046 19.5041 62.1537 18.7459 62.1537 17.771V8.76965H66.4107V17.8685C66.4107 19.255 66.1074 20.4682 65.5008 21.508C64.9158 22.5479 64.0818 23.3603 62.9986 23.9452C61.9371 24.5085 60.713 24.7901 59.3266 24.7901Z" fill="white"/>
<path d="M44.5624 24.8226C43.6742 24.8226 42.7968 24.7035 41.9302 24.4652C41.0854 24.2269 40.3055 23.9019 39.5905 23.4903C38.8756 23.057 38.2582 22.5371 37.7383 21.9305L40.273 19.3633C40.8146 19.9699 41.4428 20.4248 42.1577 20.7281C42.8726 21.0314 43.6634 21.1831 44.5299 21.1831C45.2232 21.1831 45.7431 21.0856 46.0897 20.8906C46.458 20.6956 46.6422 20.4032 46.6422 20.0132C46.6422 19.5799 46.4472 19.2442 46.0572 19.0059C45.6889 18.7676 45.2015 18.5726 44.5949 18.4209C43.9883 18.2476 43.3492 18.0635 42.6777 17.8685C42.0277 17.6519 41.3995 17.3811 40.7929 17.0561C40.1863 16.7095 39.688 16.2437 39.2981 15.6588C38.9298 15.0522 38.7457 14.2723 38.7457 13.3191C38.7457 12.3225 38.984 11.456 39.4606 10.7194C39.9588 9.98283 40.6629 9.40874 41.5728 8.99712C42.4827 8.58551 43.555 8.3797 44.7899 8.3797C46.0897 8.3797 47.2596 8.60717 48.2994 9.06211C49.361 9.51706 50.2384 10.1995 50.9316 11.1094L48.3644 13.6765C47.8878 13.0916 47.3462 12.6692 46.7396 12.4092C46.1547 12.1492 45.5156 12.0192 44.8224 12.0192C44.1941 12.0192 43.7067 12.1167 43.3601 12.3117C43.0351 12.5067 42.8726 12.7775 42.8726 13.1241C42.8726 13.514 43.0568 13.8173 43.4251 14.034C43.815 14.2506 44.3133 14.4456 44.9199 14.6189C45.5265 14.7706 46.1547 14.9547 46.8046 15.1713C47.4762 15.3663 48.1045 15.6479 48.6894 16.0162C49.296 16.3845 49.7834 16.872 50.1517 17.4785C50.5417 18.0851 50.7366 18.865 50.7366 19.8183C50.7366 21.3564 50.1842 22.5804 49.0793 23.4903C47.9745 24.3785 46.4688 24.8226 44.5624 24.8226Z" fill="white"/>
</svg>
