<svg width="100" height="100" viewBox="0 0 100 100" fill="none" xmlns="http://www.w3.org/2000/svg">
<path d="M89.5833 75.162C91.7082 73.0363 93.5582 70.6605 95.0706 68.0847C95.6581 67.0844 96.208 66.0465 96.6955 64.9837C96.9455 64.4585 97.1705 63.9334 97.383 63.3957C98.0455 61.7576 98.5829 60.0571 99.0079 58.3315C99.1329 57.8314 99.2454 57.3187 99.3454 56.806C99.4579 56.2433 99.5454 55.6807 99.6329 55.118C99.7829 54.0676 99.8829 53.0048 99.9454 51.9544C100.108 49.041 99.9079 46.1275 99.3454 43.2391C99.2329 42.6764 99.1204 42.1137 98.9829 41.5636C98.5704 39.888 98.0455 38.25 97.3955 36.6495C97.183 36.1118 96.9455 35.5866 96.708 35.0614C96.2205 34.0111 95.6706 32.9607 95.0831 31.9604C93.5707 29.3971 91.7207 27.0088 89.5958 24.8831L75.1465 10.4284C74.834 10.1158 74.509 9.8032 74.1716 9.4906C71.8717 7.3524 69.3093 5.53931 66.5344 4.07633C66.0219 3.81374 65.5095 3.55116 64.9845 3.31358C63.4096 2.58834 61.7846 1.96314 60.1222 1.47548C59.0348 1.15038 57.9098 0.875285 56.7849 0.662716C55.6724 0.450147 54.535 0.287594 53.41 0.175057C52.8475 0.125041 52.2726 0.0750245 51.7101 0.0500163C51.1351 0.0125041 50.5602 0 49.9977 0C48.2853 0 46.5853 0.125041 44.8979 0.362618C44.3354 0.437643 43.773 0.537675 43.2105 0.650212C42.648 0.762749 42.0856 0.88779 41.5231 1.01283C39.8482 1.42546 38.2107 1.95064 36.6108 2.60085C36.0733 2.81342 35.5484 3.051 35.0234 3.28857C33.9734 3.77623 32.9235 4.32641 31.9235 4.9141C29.3611 6.4271 26.9737 8.2777 24.8488 10.4034L10.3995 24.8581C9.94954 25.3083 9.51206 25.7834 9.08708 26.2461C8.6496 26.7337 8.22462 27.2214 7.82464 27.7215C7.76214 27.7966 7.69964 27.8841 7.63715 27.9591C6.27471 29.6847 5.07476 31.5228 4.06231 33.4609C3.24985 34.9989 2.56238 36.5994 1.98741 38.2375C1.42493 39.8505 0.974955 41.526 0.64997 43.2141C0.43748 44.327 0.274987 45.4648 0.162492 46.5902C0.112495 47.1529 0.0624971 47.7281 0.0374983 48.2907C-0.0124994 49.4161 -0.0124994 50.5665 0.0374983 51.7044C0.0624971 52.267 0.0999954 52.8422 0.162492 53.4049C0.274987 54.5303 0.43748 55.6682 0.64997 56.781C0.974955 58.4691 1.42493 60.1446 1.98741 61.7576C2.1249 62.1703 2.28739 62.5704 2.43739 62.983C2.91237 64.1959 3.46234 65.3838 4.06231 66.5342C5.72473 69.6977 7.86214 72.5987 10.412 75.137L24.8613 89.5917C26.9862 91.7174 29.3611 93.568 31.936 95.081C32.436 95.3811 32.9485 95.6562 33.4609 95.9313C33.9734 96.2064 34.4984 96.469 35.0359 96.7065C35.5609 96.9566 36.0983 97.1817 36.6233 97.3943C38.7482 98.257 40.9606 98.9073 43.2105 99.3449C43.773 99.4574 44.3354 99.545 44.8979 99.6325C47.1478 99.9576 49.4352 100.07 51.6976 99.9576C52.2601 99.9326 52.8351 99.8951 53.3975 99.8326C53.96 99.7825 54.535 99.7075 55.0974 99.6325C55.6599 99.545 56.2224 99.4574 56.7849 99.3449C57.8973 99.1323 59.0223 98.8572 60.1097 98.5321C61.4347 98.1445 62.7471 97.6569 64.022 97.1067C64.872 96.7441 65.7095 96.3564 66.5344 95.9188C66.9219 95.7062 67.3219 95.4936 67.6969 95.2811C67.8844 95.1685 68.0718 95.056 68.2593 94.9435C68.4593 94.8309 68.6468 94.7184 68.8468 94.5934C69.0468 94.4683 69.2343 94.3433 69.4218 94.2182C69.5968 94.1057 69.7843 93.9807 69.9593 93.8681C70.1468 93.7431 70.3342 93.6055 70.5217 93.468C70.6967 93.3429 70.8842 93.2179 71.0592 93.0929C71.2342 92.9678 71.4092 92.8303 71.5842 92.6927C71.7592 92.5552 71.9467 92.4176 72.1217 92.2801C72.2842 92.1426 72.4466 92.005 72.6091 91.88C72.7841 91.7299 72.9716 91.5799 73.1466 91.4298C73.2966 91.2923 73.4591 91.1547 73.6091 91.0172C73.7841 90.8546 73.9716 90.6921 74.1466 90.5295C74.2966 90.392 74.434 90.2544 74.584 90.1169C74.759 89.9543 74.934 89.7918 75.0965 89.6292C75.0965 89.6292 75.1215 89.5917 75.134 89.5792L89.5833 75.1245V75.162ZM39.1607 12.1915C39.5357 12.0164 39.9231 11.8539 40.3106 11.6913C40.8231 11.4787 41.3606 11.2912 41.8856 11.1161C42.9355 10.766 43.998 10.4909 45.0729 10.2784C45.4854 10.2033 45.8854 10.1283 46.2979 10.0783C46.7103 10.0158 47.1103 9.96575 47.5228 9.92824C48.7602 9.8157 49.9977 9.77819 51.2351 9.84071C51.6476 9.86572 52.0601 9.89073 52.4726 9.92824C53.2975 10.0033 54.1225 10.1283 54.9225 10.2784C55.7349 10.4409 56.5474 10.641 57.3348 10.866C57.7348 10.9786 58.1348 11.1161 58.5223 11.2537C59.7097 11.6663 60.8597 12.1665 61.9721 12.7542C64.2595 13.9546 66.3594 15.5051 68.2093 17.3557L82.6587 31.8104C84.1961 33.3484 85.5335 35.0739 86.6335 36.937C86.846 37.2997 87.0585 37.6623 87.246 38.0374C87.446 38.4125 87.6334 38.7877 87.8084 39.1753C87.9834 39.5504 88.1459 39.938 88.3084 40.3257C88.4584 40.7133 88.6084 41.1009 88.7459 41.4885C89.0209 42.2763 89.2584 43.0765 89.4584 43.8768C89.4959 44.0394 89.5334 44.2019 89.5709 44.3645C89.6209 44.602 89.6833 44.8521 89.7333 45.0897C90.3708 48.3533 90.3708 51.6669 89.7333 54.9304C89.4209 56.5684 88.9459 58.169 88.3209 59.6945C88.1584 60.0821 87.9959 60.4697 87.8209 60.8448C87.4709 61.6076 87.071 62.3578 86.646 63.0831C86.3085 63.6583 85.946 64.2209 85.5585 64.7711C85.6335 55.4306 82.0337 46.1901 75.159 39.3003L60.7097 24.8456C54.81 18.9437 45.2229 18.9437 39.3232 24.8456C33.4234 30.7475 33.4234 40.3382 39.3232 46.2401L53.7725 60.6948C55.8474 62.7705 55.8474 66.1341 53.7725 68.2097C51.6976 70.2854 48.3353 70.2854 46.2604 68.2097L31.811 53.755C24.1114 46.0525 22.099 34.2737 26.7863 24.4455C28.0487 21.8071 29.7361 19.4063 31.811 17.3307C33.3485 15.7927 35.0734 14.4422 36.9358 13.3544C37.2983 13.1418 37.6733 12.9292 38.0482 12.7417C38.4232 12.5416 38.7982 12.354 39.1857 12.179L39.1607 12.1915ZM57.3348 89.1666C56.5474 89.4042 55.7349 89.6042 54.9225 89.7543C54.1225 89.9043 53.2975 90.0294 52.4726 90.1044C52.0601 90.1419 51.6476 90.1794 51.2476 90.1919C49.5977 90.2669 47.9353 90.1919 46.3104 89.9543C45.8979 89.8918 45.4979 89.8293 45.0854 89.7543C44.6729 89.6792 44.2729 89.5917 43.873 89.4917C42.6605 89.1916 41.4731 88.8165 40.3231 88.3413C39.9356 88.1788 39.5607 88.0162 39.1732 87.8411C38.4107 87.491 37.6608 87.0909 36.9358 86.6658C35.0859 85.5654 33.361 84.2275 31.811 82.6895L17.3617 68.2348C16.8992 67.7721 16.4617 67.2969 16.0368 66.7968C14.7618 65.3213 13.6744 63.7083 12.7744 61.9952C12.1869 60.8824 11.687 59.7195 11.2745 58.5441C10.862 57.3812 10.537 56.1683 10.2995 54.9429C10.1495 54.1427 10.0245 53.3174 9.94954 52.4921C9.91204 52.0795 9.88704 51.6669 9.86204 51.2667C9.82454 50.4415 9.82454 49.6162 9.86204 48.7909C9.88704 48.3783 9.91204 47.9656 9.94954 47.553C10.0245 46.7277 10.1495 45.9025 10.2995 45.1022C10.537 43.8893 10.862 42.6764 11.2745 41.501C11.687 40.3131 12.1869 39.1628 12.7744 38.0499C13.0494 37.5122 13.3619 36.9996 13.6744 36.4869C13.7744 36.3243 13.8869 36.1618 13.9994 35.9992C14.1618 35.7617 14.3243 35.5241 14.4868 35.2865C14.4243 44.502 17.9242 53.6175 24.6239 60.4697V60.4822L39.3232 75.187L39.5857 75.4496L39.7482 75.5621C45.6729 81.0639 54.96 80.9514 60.7097 75.187C66.4594 69.4226 66.6094 59.6945 60.7097 53.7925L46.2604 39.3378C44.1854 37.2622 44.1854 33.8986 46.2604 31.8229C48.3353 29.7472 51.6976 29.7472 53.7725 31.8229L68.2218 46.2776C75.9215 53.9801 77.9464 65.7589 73.2466 75.5872C71.9842 78.2255 70.2967 80.6263 68.2218 82.702C67.8219 83.1021 67.4094 83.4772 66.9969 83.8398C66.8344 83.9899 66.6594 84.1274 66.4969 84.265C66.1969 84.5151 65.8969 84.7526 65.5845 84.9902C65.4095 85.1278 65.2345 85.2528 65.0595 85.3904C64.722 85.6279 64.3845 85.8655 64.0345 86.0906C63.8845 86.1906 63.722 86.2906 63.5721 86.3907C63.0596 86.7033 62.5471 87.0159 62.0096 87.291C61.6346 87.491 61.2722 87.6661 60.8847 87.8411C59.8722 88.3163 58.8098 88.7164 57.7473 89.054C57.6223 89.0916 57.4973 89.1416 57.3723 89.1791L57.3348 89.1666Z" fill="white"/>
</svg>
