<svg width="595" height="100" viewBox="0 0 595 100" fill="none" xmlns="http://www.w3.org/2000/svg">
<path d="M140.997 63.9366C142.905 65.2691 145.368 65.9353 148.356 65.9353C151.345 65.9353 153.485 65.4811 155.15 64.5523C156.806 63.6236 157.634 62.3012 157.634 60.5851C157.634 59.3031 157.25 58.3541 156.493 57.7182C155.726 57.0822 154.646 56.6178 153.242 56.3352C151.839 56.0525 149.548 55.7194 146.358 55.3358C142.027 54.7604 138.423 54.0336 135.556 53.1351C132.689 52.2367 130.398 50.8335 128.672 48.9256C126.945 47.0177 126.087 44.4637 126.087 41.2738C126.087 38.0838 126.966 35.2674 128.722 32.8143C130.479 30.3613 132.942 28.4635 136.132 27.1309C139.322 25.7984 142.976 25.1322 147.125 25.1322C153.818 25.2028 159.218 26.6262 163.327 29.4326C167.436 32.2389 169.646 36.1254 169.98 41.092H157.169C156.977 39.2447 156.008 37.7305 154.252 36.5494C152.495 35.3683 150.254 34.7828 147.509 34.7828C144.965 34.7828 142.905 35.2573 141.351 36.2163C139.786 37.1652 139.009 38.4472 139.009 40.0422C139.009 41.1829 139.423 42.0511 140.25 42.6265C141.078 43.2019 142.158 43.6157 143.501 43.8681C144.833 44.1306 147.064 44.4132 150.194 44.7262C156.826 45.4934 161.904 46.9066 165.447 48.9761C168.99 51.0455 170.747 54.5989 170.747 59.6362C170.747 62.8261 169.798 65.6224 167.92 68.0451C166.043 70.4679 163.428 72.3253 160.087 73.6376C156.735 74.9399 152.869 75.596 148.468 75.596C141.643 75.596 136.111 74.0818 131.831 71.0534C127.561 68.035 125.3 63.8962 125.037 58.6772H137.848C138.04 60.8375 139.089 62.594 141.007 63.9366H140.997Z" fill="white"/>
<path d="M186.394 25.8792L196.236 60.474L205.503 25.8792H217.647L226.631 60.5851L236.666 25.8792H250.425L234.273 75.0106H219.929L211.328 45.3823L202.535 75.0106H188.191L172.13 25.8792H186.394Z" fill="white"/>
<path d="M263.589 28.4231C267.314 26.3536 271.634 25.3139 276.54 25.3139C281.446 25.3139 285.898 26.283 289.684 28.2313C293.469 30.1796 296.437 32.9153 298.567 36.4484C300.707 39.9917 301.797 44.1407 301.868 48.9256C301.868 50.6417 301.747 52.1761 301.484 53.5086H265.83V53.8922C266.143 57.4557 267.293 60.2621 269.272 62.3012C271.25 64.3404 273.956 65.3599 277.398 65.3599C280.134 65.3599 282.415 64.7643 284.232 63.5933C286.049 62.4223 287.251 60.6759 287.816 58.3844H301.101C300.586 61.6349 299.344 64.5624 297.376 67.177C295.397 69.7915 292.793 71.8408 289.532 73.3348C286.282 74.8288 282.547 75.5759 278.347 75.5759C272.866 75.5759 268.131 74.5563 264.154 72.5171C260.166 70.478 257.118 67.5606 254.978 63.775C252.838 59.9794 251.778 55.5781 251.778 50.5408C251.778 45.5035 252.817 40.9911 254.887 37.2056C256.956 33.42 259.853 30.4824 263.589 28.413V28.4231ZM284.707 37.781C282.698 36.1557 280.164 35.338 277.105 35.338C274.047 35.338 271.705 36.186 269.696 37.8718C267.697 39.5576 266.486 41.8391 266.112 44.706H288.381C287.937 41.7078 286.716 39.4062 284.697 37.7709H284.707V37.781Z" fill="white"/>
<path d="M319.12 28.4231C322.845 26.3536 327.166 25.3139 332.072 25.3139C336.978 25.3139 341.429 26.283 345.215 28.2313C349.011 30.1796 351.968 32.9153 354.098 36.4484C356.239 39.9917 357.329 44.1407 357.399 48.9256C357.399 50.6417 357.278 52.1761 357.016 53.5086H321.361V53.8922C321.674 57.4557 322.825 60.2621 324.803 62.3012C326.782 64.3404 329.487 65.3599 332.93 65.3599C335.665 65.3599 337.947 64.7643 339.764 63.5933C341.571 62.4122 342.772 60.6759 343.347 58.3844H356.632C356.127 61.6349 354.876 64.5624 352.907 67.177C350.929 69.7915 348.324 71.8408 345.064 73.3348C341.813 74.8288 338.078 75.5759 333.879 75.5759C328.397 75.5759 323.663 74.5563 319.685 72.5171C315.698 70.478 312.649 67.5606 310.509 63.775C308.369 59.9794 307.309 55.5781 307.309 50.5408C307.309 45.5035 308.349 40.9911 310.418 37.2056C312.488 33.42 315.385 30.4824 319.12 28.413V28.4231ZM340.238 37.781C338.24 36.1557 335.696 35.338 332.637 35.338C329.578 35.338 327.236 36.186 325.227 37.8718C323.218 39.5576 322.027 41.8391 321.644 44.706H343.913C343.469 41.7078 342.247 39.4062 340.228 37.7709L340.238 37.781Z" fill="white"/>
<path d="M359.59 37.256V25.8792H367.716V12.12H381.193V25.8792H392.378V37.256H381.193V58.7579C381.193 60.474 381.556 61.7258 382.293 62.4829C383.03 63.2501 384.252 63.6236 385.978 63.6236H392.963V75.0005H381.778C372.41 75.0005 367.726 70.3165 367.726 60.9384V37.2257H359.6L359.59 37.256Z" fill="white"/>
<path d="M412.739 63.9366C414.647 65.2691 417.11 65.9353 420.098 65.9353C423.086 65.9353 425.226 65.4811 426.892 64.5523C428.548 63.6236 429.385 62.3012 429.385 60.5851C429.385 59.3031 429.002 58.3541 428.245 57.7182C427.477 57.0822 426.397 56.6178 424.994 56.3352C423.591 56.0525 421.299 55.7194 418.109 55.3358C413.779 54.7604 410.175 54.0336 407.308 53.1351C404.441 52.2367 402.15 50.8335 400.423 48.9256C398.697 47.0177 397.839 44.4637 397.839 41.2738C397.839 38.0838 398.717 35.2674 400.474 32.8143C402.23 30.3613 404.694 28.4635 407.884 27.1309C411.063 25.7984 414.728 25.1322 418.877 25.1322C425.57 25.2028 430.97 26.6262 435.079 29.4326C439.187 32.2389 441.398 36.1254 441.731 41.092H428.921C428.729 39.2447 427.76 37.7305 426.004 36.5494C424.247 35.3683 422.006 34.7828 419.26 34.7828C416.716 34.7828 414.657 35.2573 413.103 36.2163C411.538 37.1652 410.76 38.4472 410.76 40.0422C410.76 41.1829 411.174 42.0511 412.002 42.6265C412.83 43.2019 413.91 43.6157 415.253 43.8681C416.585 44.1306 418.816 44.4132 421.946 44.7262C428.578 45.4934 433.655 46.9066 437.199 48.9761C440.742 51.0455 442.499 54.5989 442.499 59.6362C442.499 62.8261 441.56 65.6224 439.672 68.0451C437.794 70.4679 435.18 72.3253 431.838 73.6376C428.487 74.9399 424.621 75.596 420.219 75.596C413.405 75.596 407.863 74.0818 403.583 71.0534C399.313 68.035 397.052 63.8962 396.789 58.6772H409.6C409.791 60.8375 410.841 62.594 412.759 63.9366H412.739Z" fill="white"/>
<path d="M498.333 37.256C500.281 41.082 501.25 45.5035 501.25 50.5408C501.25 55.5781 500.281 59.9693 498.333 63.7347C496.385 67.4899 493.699 70.4073 490.257 72.4768C486.815 74.5462 482.898 75.586 478.497 75.586C472.197 75.586 467.251 73.3247 463.677 68.7922V94.12H450.201V25.8792H461.961L463.294 32.673C464.949 30.442 467.069 28.6553 469.654 27.3227C472.238 25.9902 475.216 25.324 478.587 25.324C482.989 25.324 486.885 26.3637 490.297 28.4332C493.699 30.5026 496.385 33.4503 498.323 37.2762L498.333 37.256ZM487.592 50.349C487.592 46.1394 486.471 42.7476 484.241 40.1734C482.01 37.5892 479.082 36.297 475.448 36.297C471.814 36.297 468.917 37.5892 466.746 40.1734C464.586 42.7577 463.496 46.1394 463.496 50.349C463.496 54.5585 464.586 58.0614 466.746 60.6759C468.917 63.2905 471.814 64.5927 475.448 64.5927C479.082 64.5927 482.01 63.2703 484.241 60.6255C486.471 57.9806 487.592 54.5484 487.592 50.349Z" fill="white"/>
<path d="M510.002 63.6438C507.862 59.8179 506.802 55.4267 506.802 50.4499C506.802 45.4732 507.872 41.082 510.002 37.256C512.143 33.4301 515.161 30.4824 519.078 28.413C522.994 26.3436 527.537 25.3038 532.695 25.3038C537.854 25.3038 542.397 26.3436 546.313 28.413C550.23 30.4824 553.259 33.4301 555.389 37.256C557.529 41.082 558.589 45.4732 558.589 50.4499C558.589 55.4267 557.519 59.8986 555.389 63.6842C553.249 67.4798 550.23 70.4073 546.313 72.4768C542.397 74.5462 537.854 75.586 532.695 75.586C527.537 75.586 522.994 74.5462 519.078 72.4768C515.161 70.4073 512.132 67.4596 510.002 63.6337V63.6438ZM544.93 50.4499C544.93 46.2404 543.83 42.8284 541.629 40.2138C539.429 37.5993 536.451 36.297 532.695 36.297C528.94 36.297 526.043 37.5993 523.852 40.2138C521.652 42.8284 520.552 46.2404 520.552 50.4499C520.552 54.6594 521.652 58.0614 523.852 60.6759C526.053 63.2905 529.001 64.5927 532.695 64.5927C536.39 64.5927 539.439 63.2905 541.629 60.6759C543.83 58.0614 544.93 54.6494 544.93 50.4499Z" fill="white"/>
<path d="M560.9 37.256V25.8792H569.027V12.12H582.503V25.8792H593.688V37.256H582.503V58.7579C582.503 60.474 582.867 61.7258 583.604 62.4829C584.34 63.24 585.562 63.6236 587.288 63.6236H594.264V75.0005H583.079C573.711 75.0005 569.027 70.3165 569.027 60.9384V37.2257H560.9V37.256Z" fill="white"/>
<path d="M89.572 75.1365C91.7009 73.0072 93.5499 70.6379 95.0592 68.0587C95.6489 67.059 96.1986 66.0194 96.6883 64.9597C96.9382 64.4299 97.1681 63.91 97.378 63.3702C98.0377 61.7307 98.5774 60.0312 99.0072 58.3118C99.1371 57.8119 99.2471 57.3021 99.347 56.7822C99.4569 56.2224 99.5469 55.6526 99.6368 55.0928C99.7868 54.0431 99.8867 52.9834 99.9467 51.9338C100.107 49.0247 99.9067 46.1056 99.347 43.2165C99.2371 42.6567 99.1171 42.0868 98.9872 41.537C98.5774 39.8575 98.0477 38.228 97.398 36.6285C97.1881 36.0887 96.9482 35.5689 96.7083 35.039C96.2186 33.9894 95.6689 32.9397 95.0792 31.94C93.5699 29.3808 91.7209 26.9916 89.592 24.8622L75.1493 10.4167C74.8395 10.1068 74.5096 9.78693 74.1698 9.47703C71.871 7.33769 69.3123 5.52826 66.5337 4.06872C66.0239 3.8088 65.5042 3.53888 64.9845 3.30895C63.4053 2.57918 61.7861 1.95937 60.1269 1.46953C59.0375 1.13963 57.9181 0.869715 56.7886 0.659781C55.6792 0.449847 54.5398 0.2799 53.4104 0.169934C52.8506 0.11995 52.2709 0.0699652 51.7112 0.0399746C51.1315 -1.28932e-05 50.5618 -0.0100098 50.0021 -0.0100098C48.293 -0.0100098 46.5938 0.11995 44.9047 0.349878C44.345 0.429853 43.7752 0.529822 43.2155 0.639787C42.6558 0.749753 42.0861 0.879712 41.5264 0.999675C39.8472 1.40955 38.2181 1.93938 36.6189 2.58918C36.0792 2.79911 35.5594 3.03904 35.0297 3.27896C33.9802 3.76881 32.9308 4.31864 31.9313 4.90845C29.3726 6.41798 26.9838 8.2674 24.8549 10.3967L10.4122 24.8422C9.96244 25.2921 9.52266 25.7719 9.10287 26.2318C8.6631 26.7216 8.24331 27.2115 7.84351 27.7113C7.78354 27.7913 7.71358 27.8713 7.65361 27.9513C6.2943 29.6807 5.09491 31.5101 4.07543 33.4495C3.26584 34.9891 2.57619 36.5886 1.99649 38.228C1.43677 39.8375 0.986998 41.517 0.657166 43.2065C0.447273 44.3161 0.277359 45.4558 0.167415 46.5854C0.11744 47.1453 0.0674657 47.7251 0.0374809 48.2849C-0.0124937 49.4145 -0.0124937 50.5642 0.0374809 51.6938C0.0674657 52.2537 0.0974505 52.8335 0.167415 53.3933C0.277359 54.5229 0.447273 55.6526 0.657166 56.7722C0.986998 58.4617 1.43677 60.1312 1.99649 61.7507C2.13641 62.1606 2.29633 62.5604 2.44626 62.9803C2.92601 64.1899 3.47573 65.3796 4.07543 66.5292C5.73458 69.6882 7.8735 72.5873 10.4222 75.1265L24.8649 89.572C26.9938 91.7013 29.3626 93.5508 31.9413 95.0603C32.441 95.3602 32.9508 95.6401 33.4705 95.91C33.9802 96.1899 34.51 96.4498 35.0497 96.6898C35.5794 96.9397 36.1091 97.1696 36.6389 97.3796C38.7678 98.2393 40.9767 98.8891 43.2255 99.3289C43.7852 99.4389 44.355 99.5289 44.9147 99.6189C47.1635 99.9488 49.4524 100.059 51.7112 99.9488C52.2709 99.9188 52.8506 99.8888 53.4104 99.8188C53.9701 99.7688 54.5498 99.6888 55.1095 99.6189C55.6692 99.5289 56.2389 99.4389 56.7986 99.3289C57.9081 99.119 59.0375 98.8391 60.1269 98.5192C61.4563 98.1293 62.7656 97.6395 64.035 97.0897C64.8845 96.7298 65.7241 96.3399 66.5437 95.9C66.9335 95.6901 67.3333 95.4702 67.7031 95.2602C67.893 95.1503 68.0829 95.0303 68.2628 94.9203C68.4627 94.8104 68.6526 94.6904 68.8525 94.5704C69.0524 94.4405 69.2423 94.3205 69.4322 94.1906C69.6121 94.0806 69.792 93.9506 69.9719 93.8407C70.1618 93.7107 70.3517 93.5807 70.5316 93.4408C70.7116 93.3108 70.8915 93.1909 71.0714 93.0609C71.2513 92.9309 71.4212 92.801 71.6011 92.661C71.781 92.5211 71.9609 92.3811 72.1408 92.2512C72.3007 92.1112 72.4707 91.9713 72.6306 91.8513C72.8105 91.7013 72.9904 91.5514 73.1703 91.4014C73.3202 91.2615 73.4801 91.1215 73.6301 90.9916C73.81 90.8316 73.9899 90.6617 74.1698 90.5017C74.3197 90.3618 74.4596 90.2218 74.6096 90.0918C74.7895 89.9319 74.9594 89.7619 75.1193 89.602C75.1193 89.602 75.1493 89.562 75.1593 89.552L89.602 75.1065V75.1465L89.572 75.1365ZM39.1576 12.1862C39.5374 12.0062 39.9172 11.8463 40.307 11.6863C40.8168 11.4764 41.3565 11.2865 41.8862 11.1065C42.9357 10.7566 43.9951 10.4767 45.0746 10.2668C45.4844 10.1868 45.8842 10.1168 46.304 10.0668C46.7138 10.0069 47.1136 9.95688 47.5333 9.91689C48.7727 9.80692 50.0121 9.76694 51.2415 9.82692C51.6512 9.85691 52.071 9.8769 52.4808 9.91689C53.3104 9.99686 54.13 10.1168 54.9296 10.2668C55.7392 10.4267 56.5587 10.6267 57.3384 10.8566C57.7381 10.9666 58.138 11.1065 58.5278 11.2465C59.7171 11.6563 60.8666 12.1562 61.976 12.746C64.2648 13.9456 66.3638 15.4951 68.2128 17.3446L82.6555 31.7901C84.1947 33.3296 85.534 35.049 86.6335 36.9184C86.8434 37.2783 87.0632 37.6482 87.2431 38.0181C87.443 38.398 87.633 38.7679 87.8029 39.1577C87.9828 39.5376 88.1427 39.9175 88.3026 40.3074C88.4525 40.6973 88.6025 41.0871 88.7424 41.467C89.0222 42.2568 89.2521 43.0565 89.452 43.8563C89.492 44.0162 89.532 44.1862 89.562 44.3461C89.6119 44.5861 89.6719 44.836 89.7219 45.0759C90.3616 48.3349 90.3616 51.6538 89.7219 54.9128C89.412 56.5523 88.9323 58.1518 88.3126 59.6713C88.1527 60.0612 87.9828 60.4511 87.8129 60.821C87.463 61.5807 87.0632 62.3305 86.6335 63.0603C86.2936 63.6401 85.9338 64.1999 85.544 64.7498C85.624 55.4127 82.0158 46.1756 75.1493 39.2877L60.7066 24.8422C54.8096 18.9441 45.2245 18.9441 39.3275 24.8422C33.4305 30.7404 33.4305 40.3274 39.3275 46.2255L53.7702 60.671C55.8491 62.7504 55.8491 66.1093 53.7702 68.1787C51.6912 70.258 48.3329 70.258 46.264 68.1787L31.8213 53.7332C24.1252 46.0356 22.1063 34.2593 26.7939 24.4324C28.0532 21.7932 29.7424 19.3939 31.8213 17.3246C33.3605 15.7851 35.0797 14.4355 36.9487 13.3458C37.3085 13.1359 37.6883 12.916 38.0582 12.736C38.438 12.5361 38.8078 12.3461 39.1976 12.1762H39.1676L39.1576 12.1862ZM57.3284 89.1421C56.5388 89.3821 55.7292 89.582 54.9196 89.7319C54.12 89.8819 53.2904 90.0119 52.4708 90.0818C52.061 90.1218 51.6413 90.1618 51.2415 90.1718C49.5923 90.2518 47.9331 90.1718 46.304 89.9319C45.8942 89.8719 45.4944 89.8019 45.0746 89.7319C44.6648 89.652 44.265 89.572 43.8652 89.472C42.6558 89.1721 41.4664 88.7922 40.317 88.3224C39.9272 88.1624 39.5574 87.9925 39.1676 87.8225C38.408 87.4727 37.6584 87.0728 36.9287 86.6429C35.0797 85.5433 33.3505 84.2037 31.8013 82.6642L17.3587 68.2187C16.8989 67.7588 16.4591 67.279 16.0294 66.7791C14.75 65.2996 13.6706 63.6901 12.771 61.9806C12.1813 60.871 11.6816 59.7013 11.2718 58.5317C10.862 57.3721 10.5321 56.1524 10.2923 54.9328C10.1423 54.1331 10.0124 53.3033 9.94245 52.4836C9.90247 52.0737 9.88248 51.6538 9.85249 51.254C9.81251 50.4242 9.81251 49.6045 9.85249 48.7747C9.88248 48.3649 9.90247 47.945 9.94245 47.5351C10.0224 46.7054 10.1423 45.8856 10.2923 45.0859C10.5321 43.8763 10.852 42.6567 11.2718 41.487C11.6816 40.2974 12.1813 39.1478 12.771 38.0381C13.0509 37.4983 13.3607 36.9884 13.6706 36.4786C13.7705 36.3186 13.8804 36.1487 14.0004 35.9887C14.1603 35.7488 14.3302 35.5089 14.4901 35.279C14.4302 44.4961 17.9284 53.6032 24.625 60.4511L39.5874 75.4264L39.7473 75.5364C45.6743 81.0347 54.9596 80.9247 60.7066 75.1565C66.4537 69.3983 66.6036 59.6713 60.7066 53.7732L46.264 39.3277C44.185 37.2483 44.185 33.8894 46.264 31.82C48.3429 29.7407 51.7012 29.7407 53.7702 31.82L68.2128 46.2655C75.9089 53.9631 77.9379 65.7394 73.2403 75.5664C71.9809 78.2056 70.2918 80.6048 68.2128 82.6741C67.813 83.074 67.4032 83.4539 66.9834 83.8138C66.8235 83.9638 66.6436 84.1037 66.4837 84.2437C66.1838 84.4936 65.884 84.7335 65.5742 84.9734C65.3943 85.1134 65.2243 85.2334 65.0444 85.3733C64.7046 85.6132 64.3648 85.8532 64.015 86.0731C63.865 86.1731 63.7051 86.273 63.5552 86.373C63.0455 86.6829 62.5257 87.0028 61.996 87.2727C61.6162 87.4727 61.2564 87.6526 60.8666 87.8225C59.8571 88.3024 58.7876 88.7023 57.7282 89.0322C57.5982 89.0722 57.4783 89.1221 57.3484 89.1621H57.3084L57.3284 89.1421Z" fill="white"/>
</svg>
